<!-- This logo is from https://github.com/numworks/epsilon/raw/version-15/docs/epsilon.svg under a CC-BY-NC-SA 4.0 license (https://creativecommons.org/licenses/by-nc-sa/4.0/legalcode) -->
<svg xmlns="http://www.w3.org/2000/svg" width="128" height="128">
  <path fill="#FFB734" d="M107 127.6H20.8c-11.5 0-20.9-9.4-20.9-20.9V20.5C-.1 9 9.3-.4 20.8-.4H107c11.5 0 20.9 9.4 20.9 20.9v86.2c0 11.5-9.4 20.9-20.9 20.9z"/>
  <path fill="#FFFFFF" stroke="#FFFFFF" stroke-width="1.255" stroke-miterlimit="10" opacity=".32" d="M99.8 44H83.9c-.8-6.6-7.2-9.9-19.3-9.9-12.3 0-18.4 4.5-18.4 13.4 0 3.3 1.3 6.3 3.9 8.9 2.6 2.6 8.7 3.9 18.3 3.9H74V72h-5.6c-6.4 0-11.1.4-14.1 1.2-3 .8-5.5 2.4-7.5 4.7-2 2.4-3 5.3-3 8.8 0 4.2 1.9 7.6 5.8 10.2 3.9 2.6 9.2 3.9 15.9 3.9 6.6 0 11.8-1.3 15.7-3.9 3.9-2.6 5.8-5.5 5.8-8.6h16c-.7 7-4.4 12.8-11.2 17.5-6.8 4.7-15.6 7.1-26.5 7.1-11.8 0-21-2.5-27.5-7.4S28 94.4 28 86.9c0-8.8 4.8-15.7 14.4-20.5.6-.3.6-1.2 0-1.5-8.1-4-12.1-9.9-12.1-17.6 0-7.4 3.1-13.4 9.2-18.1 6.2-4.7 14.7-7 25.7-7 10.5 0 18.8 2.1 25.1 6.2 6.4 3.9 9.5 9.2 9.5 15.6z"/>
  <g stroke="#FFFFFF" fill="none">
    <path d="M100.6 46.4c0 13.8-13 25-35.5 25-17.1 0-35.5-10.2-35.5-25 0-15.1 14.9-25 35.5-25 23 0 35.5 9.6 35.5 25z"/>
    <path d="M103.6 87.1c0 13.1-14 26.1-38.2 26.1-18.4 0-37.4-11-37.4-26.5C28.1 71 43.3 61 65.4 61c24.7 0 38.2 10 38.2 26.1zm-20-39.6c0 7.3-5 12-18.6 12-10.8 0-18.2-3.4-18.2-12s6-13.1 18.2-13.1c11.8 0 18.6 2.9 18.6 13.1z"/>
    <path d="M86.9 86.2c0 7.2-6.1 13.8-21.6 13.8-12.4 0-20.8-3.8-20.8-13.2 0-9.5 6.8-14.4 20.8-14.4 13.5 0 21.6 2.5 21.6 13.8z"/>
    <path d="M74 59.9h29M74 72.5h29"/>
    <path stroke-dasharray="2,1" d="M75 65.5h28M88.5 87V44"/>
    <path stroke-width="1.673" d="M99.8 44H83.9c-.8-6.6-7.2-9.9-19.3-9.9-12.3 0-18.4 4.5-18.4 13.4 0 3.3 1.3 6.3 3.9 8.9 2.6 2.6 8.7 3.9 18.3 3.9H74V72h-5.6c-6.4 0-11.1.4-14.1 1.2-3 .8-5.5 2.4-7.5 4.7-2 2.4-3 5.3-3 8.8 0 4.2 1.9 7.6 5.8 10.2 3.9 2.6 9.2 3.9 15.9 3.9 6.6 0 11.8-1.3 15.7-3.9 3.9-2.6 5.8-5.5 5.8-8.6h16c-.7 7-4.4 12.8-11.2 17.5-6.8 4.7-15.6 7.1-26.5 7.1-11.8 0-21-2.5-27.5-7.4S28 94.4 28 86.9c0-8.8 4.8-15.7 14.4-20.5.6-.3.6-1.2 0-1.5-8.1-4-12.1-9.9-12.1-17.6 0-7.4 3.1-13.4 9.2-18.1 6.2-4.7 14.7-7 25.7-7 10.5 0 18.8 2.1 25.1 6.2 6.4 3.9 9.5 9.2 9.5 15.6z"/>
  </g>
</svg>
