<?xml version="1.0" encoding="UTF-8" standalone="no"?><svg width="209.68626mm" height="209.68626mm" viewBox="0 0 209.68626 209.68626" version="1.1" id="svg5" xml:space="preserve" inkscape:export-filename="bitmap.svg" inkscape:export-xdpi="96" inkscape:export-ydpi="96" xmlns:inkscape="http://www.inkscape.org/namespaces/inkscape" xmlns:sodipodi="http://sodipodi.sourceforge.net/DTD/sodipodi-0.dtd" xmlns:xlink="http://www.w3.org/1999/xlink" xmlns="http://www.w3.org/2000/svg" xmlns:svg="http://www.w3.org/2000/svg"><sodipodi:namedview id="namedview7" pagecolor="#ffffff" bordercolor="#000000" borderopacity="0.25" inkscape:showpageshadow="2" inkscape:pageopacity="0.0" inkscape:pagecheckerboard="0" inkscape:deskcolor="#d1d1d1" inkscape:document-units="mm" showgrid="false" /><defs id="defs2" /><g inkscape:label="Layer 1" inkscape:groupmode="layer" id="layer1" transform="translate(-0.49270759,-0.62564449)"><path style="fill:#000000;stroke-width:0.635413" d="m 85.3004,200.46302 c -0.163772,-0.52421 -0.447223,-1.42231 -0.629891,-1.99577 -0.182663,-0.57346 0.109862,-1.7172 0.650065,-2.54165 0.920428,-1.40475 0.901352,-1.499 -0.303295,-1.499 -0.707011,0 -1.285472,-0.28594 -1.285472,-0.63541 0,-0.34948 0.302812,-0.63542 0.672915,-0.63542 0.370102,0 0.479393,-0.31311 0.242874,-0.69582 -0.236527,-0.38269 0.160168,-1.49412 0.88154,-2.46982 1.54833,-2.09423 1.263372,-2.55307 -1.585527,-2.55307 -2.929082,0 -2.663912,-1.16852 0.375459,-1.65454 1.79013,-0.28625 2.39653,-0.65142 2.149742,-1.29455 -0.251535,-0.65549 -0.564387,-0.71273 -1.16611,-0.21334 -1.150676,0.95498 -1.918865,-0.41826 -0.912383,-1.631 0.422359,-0.50891 0.518459,-0.93438 0.213556,-0.9455 -0.304897,-0.0111 -0.114959,-0.36853 0.422092,-0.79426 1.288281,-1.02126 4.000846,-4.90435 3.6624,-5.24279 -0.145961,-0.14596 -2.321672,-0.4565 -4.834915,-0.69008 -3.214459,-0.29875 -4.569534,-0.68027 -4.569534,-1.28657 0,-0.57109 0.803918,-0.86423 2.382798,-0.86887 1.31054,-0.004 3.445889,-0.18274 4.745226,-0.39754 2.504709,-0.41406 2.527305,-0.71073 0.283172,-3.71721 -0.926127,-1.24074 -0.965135,-1.24171 -2.274397,-0.0569 -1.771957,1.6036 -2.469145,0.76464 -1.179225,-1.41902 0.567278,-0.96032 0.981148,-2.30972 0.919716,-2.99866 -0.07119,-0.79835 0.236818,-1.19749 0.849312,-1.10058 0.592809,0.0938 2.232454,-1.85381 4.279538,-5.0833 l 3.318533,-5.23533 -9.362842,-0.95312 c -5.149564,-0.52421 -9.667172,-1.15163 -10.039137,-1.39427 -0.371964,-0.24263 -1.935461,-4.50598 -3.474444,-9.47411 l -2.798156,-9.03297 -4.226873,4.62098 c -2.324782,2.54154 -4.192511,5.08927 -4.150509,5.66164 0.04264,0.58099 -0.315127,0.95693 -0.809955,0.85112 -0.487478,-0.10425 -1.699722,0.58974 -2.693877,1.54221 -1.948357,1.86664 -3.21387,1.59496 -1.955612,-0.41983 0.423617,-0.67832 0.770213,-1.50095 0.770213,-1.82806 0,-0.61728 -4.340002,-2.28384 -4.786011,-1.83783 -0.139135,0.13914 0.05004,2.19932 0.4204,4.57818 0.95688,6.14623 -0.163275,6.83386 -2.002983,1.22956 -0.784571,-2.39004 -1.563415,-4.58482 -1.730763,-4.8773 -0.167348,-0.29248 -1.261685,0.39618 -2.431861,1.53036 -1.170175,1.13418 -1.998205,2.2715 -1.840065,2.52737 0.400854,0.6486 -2.781544,2.64547 -3.504238,2.19883 -0.324343,-0.20046 -0.442802,-0.74732 -0.263241,-1.21524 0.17956,-0.46793 -0.08891,-1.01017 -0.596599,-1.20499 -0.745632,-0.28613 -0.856532,0.14188 -0.576916,2.22657 0.422817,3.15234 -0.958784,3.15854 -2.024042,0.009 l -0.67919,-2.00803 -2.154332,2.20525 c -2.320943,2.37579 -3.882091,2.83972 -3.882091,1.15364 0,-0.97852 -0.08075,-0.97852 -1.162005,0 -1.526936,1.38186 -5.827537,1.43214 -5.827537,0.0681 0,-1.21622 3.024947,-4.09984 4.300771,-4.09984 0.735548,0 0.777457,-0.19361 0.194068,-0.89655 -0.808806,-0.97455 0.102372,-2.02052 1.179972,-1.35454 0.325328,0.20107 0.771107,0.075 0.990619,-0.2802 0.219512,-0.35518 1.263873,-0.64578 2.320802,-0.64578 1.05693,0 1.817203,-0.21445 1.689497,-0.47656 -0.127706,-0.2621 -0.626886,-1.26409 -1.109287,-2.22663 -1.242482,-2.47913 -0.342917,-2.91264 1.794556,-0.86481 1.502823,1.4398 1.882318,1.56897 2.197375,0.74795 0.23868,-0.622 0.03251,-0.99242 -0.55235,-0.99242 -1.082564,0 -1.24371,-1.00391 -0.258849,-1.61259 0.370879,-0.22922 2.357866,-0.4698 4.415524,-0.53464 2.057659,-0.0648 3.912739,-0.28943 4.1224,-0.49909 0.20966,-0.20966 -0.770832,-2.20195 -2.178872,-4.4273 -1.435843,-2.26931 -2.258628,-4.14845 -1.873627,-4.27916 0.377545,-0.12818 2.218495,1.27997 4.091001,3.12921 l 3.404555,3.36226 0.680741,-1.85838 c 0.374408,-1.02212 0.794152,-2.18428 0.932767,-2.58259 0.138615,-0.39832 -0.584709,-0.89156 -1.607385,-1.09609 -2.475626,-0.49513 -2.3801,-1.67448 0.135631,-1.67448 1.151769,0 2.355272,-0.47002 2.847283,-1.11197 0.685074,-0.89386 0.961684,-0.94608 1.410192,-0.26623 0.429001,0.65028 1.790169,0.74938 5.889644,0.42878 2.932432,-0.22932 5.684327,-0.52762 6.115322,-0.66286 0.488586,-0.15332 -1.126265,-3.18546 -4.289038,-8.05334 -2.789965,-4.29409 -5.072664,-8.15062 -5.072664,-8.57008 0,-0.41945 2.279979,-4.27977 5.066621,-8.578474 l 5.066622,-7.815833 -3.00153,-0.414271 c -7.077625,-0.976852 -9.673365,-1.011164 -9.673365,-0.12787 0,1.127299 -1.069798,1.103515 -1.715812,-0.03812 -0.279473,-0.493894 -1.34389,-0.994281 -2.36537,-1.111973 -2.617745,-0.301624 -2.931531,-1.802533 -0.376841,-1.802533 2.143498,0 2.15308,-0.07702 0.544213,-4.373763 -0.551841,-1.473783 -0.657071,-1.415351 -3.92288,2.178278 -2.121897,2.334889 -3.638725,3.517837 -4.125202,3.217179 -0.574158,-0.354847 -0.46678,-0.907548 0.42319,-2.178279 0.655911,-0.936522 1.97429,-2.954282 2.929731,-4.483906 l 1.737169,-2.781132 -3.871349,0.280026 c -2.12924,0.154011 -3.871347,0.04733 -3.871347,-0.237079 0,-0.284411 -0.571872,-0.517105 -1.270826,-0.517105 -0.698954,0 -1.270826,-0.285936 -1.270826,-0.635413 0,-0.349477 0.402134,-0.635413 0.893632,-0.635413 0.605891,0 0.776784,-0.446835 0.530736,-1.387717 -0.349649,-1.337061 -0.424548,-1.313869 -2.051879,0.635413 -0.928941,1.112723 -1.882612,2.02313 -2.119269,2.02313 -0.77484,0 -0.451489,-1.918592 0.591672,-3.510657 0.881708,-1.345652 0.894719,-1.608529 0.09481,-1.915484 C 30.328533,73.159623 29.6542,73.0476 29.33995,73.10637 c -1.584855,0.296375 -2.26984,-0.118365 -1.908614,-1.15562 0.343646,-0.986771 0.284518,-0.97961 -0.525154,0.06363 -1.199096,1.545 -2.523977,0.808086 -1.611731,-0.89646 0.571999,-1.06879 0.445784,-1.232263 -0.951401,-1.232263 -0.885988,0 -1.610888,-0.325897 -1.610888,-0.724218 0,-0.398315 -0.475363,-1.071808 -1.056362,-1.496645 -0.588255,-0.430143 -0.889468,-1.207349 -0.679738,-1.753893 0.482561,-1.257533 4.582427,-1.319568 5.60716,-0.08484 0.63419,0.764154 0.860517,0.73746 1.531869,-0.180667 0.715303,-0.978237 1.014352,-0.861626 3.252266,1.268189 l 2.464531,2.345487 0.88049,-2.228361 c 1.181079,-2.989092 2.169112,-2.823553 1.869965,0.313296 -0.174003,1.824595 -0.0015,2.541652 0.611491,2.541652 0.564716,0 0.717286,-0.430359 0.450532,-1.270826 -0.735568,-2.317567 1.440875,-1.410642 4.569327,1.904041 1.648068,1.746172 3.189099,2.961399 3.424513,2.700505 0.235413,-0.260901 0.927223,-2.047009 1.537355,-3.969133 2.047156,-6.449244 3.23978,-6.080791 2.2987,0.710169 -0.354463,2.557843 -0.567021,4.728089 -0.472351,4.822753 0.09467,0.09467 1.349241,-0.290256 2.787936,-0.855386 2.567843,-1.00868 2.597461,-1.055523 1.615196,-2.554653 -1.35008,-2.060479 -0.538791,-2.669205 1.28008,-0.960465 0.80747,0.758582 2.112322,1.379234 2.899672,1.379234 1.083232,0 1.34423,0.275102 1.072685,1.130667 -0.256442,0.807978 0.8698,2.349909 3.946218,5.402757 l 4.305077,4.272085 2.752921,-8.420963 c 1.5141,-4.631531 3.108936,-8.798328 3.544066,-9.259549 0.49486,-0.524521 4.178972,-1.161145 9.837191,-1.699888 4.975322,-0.473721 9.126976,-0.954169 9.225904,-1.067661 0.09892,-0.113492 -1.347342,-2.560065 -3.213932,-5.43683 -2.578448,-3.973879 -3.645567,-5.133867 -4.441784,-4.828331 -0.835225,0.320506 -0.961774,0.130512 -0.623328,-0.935831 0.257978,-0.812814 0.01589,-1.961893 -0.616858,-2.927535 -1.458591,-2.226093 -0.56412,-3.389148 1.276582,-1.6599 l 1.439071,1.351938 1.353252,-2.293591 c 0.744291,-1.261476 1.353251,-2.381796 1.353251,-2.4896 0,-0.107804 -2.011762,-0.339948 -4.470575,-0.515875 -7.082109,-0.506722 -7.082109,-1.736709 0,-2.243431 2.458813,-0.175927 4.468688,-0.4959 4.466388,-0.711049 -0.0071,-0.659183 -2.262814,-3.858884 -3.306505,-4.690146 -0.541626,-0.431386 -1.172438,-1.590397 -1.40181,-2.575581 -0.368158,-1.581323 -0.253695,-1.767486 0.9767,-1.588533 0.766549,0.111491 1.515619,-0.154709 1.664598,-0.591556 0.187554,-0.54996 -0.527196,-0.794266 -2.323737,-0.794266 -2.612399,0 -3.453997,-0.805081 -1.589511,-1.52055 0.552796,-0.212129 1.708593,-0.385689 2.568434,-0.385689 h 1.563351 l -1.615321,-2.756331 c -1.844477,-3.147364 -2.01783,-4.233211 -0.675819,-4.233211 0.747157,0 0.804458,-0.296381 0.279887,-1.44769 -0.91509,-2.008403 0.231944,-4.90644 1.941955,-4.90644 0.719993,0 1.286552,0.419725 1.286552,0.953119 0,0.524216 0.285936,0.95312 0.635413,0.95312 0.349478,0 0.635413,0.831038 0.635413,1.846751 0,1.533237 0.215507,1.790397 1.269422,1.514792 1.184403,-0.309728 1.248707,-0.0886 0.960204,3.301814 -0.26606,3.126645 -0.168943,3.579949 0.695854,3.248096 4.193884,-1.609345 5.473314,-0.761919 2.086868,1.382228 -1.44479,0.914776 -1.754312,1.389621 -1.149475,1.763432 0.486821,0.30087 0.930403,0.203526 1.077031,-0.236353 0.137116,-0.411353 0.624617,-0.747914 1.083328,-0.747914 0.871571,0 0.864696,2.099049 -0.02446,7.466103 -0.246064,1.485277 -0.320985,2.700505 -0.166497,2.700505 0.154488,0 2.104939,-0.71484 4.334329,-1.588533 4.635973,-1.816823 5.085883,-1.887218 5.076423,-0.794266 -0.004,0.436846 -1.71941,1.780199 -3.81248,2.985228 -2.093067,1.20503 -3.805588,2.358607 -3.805588,2.563506 0,0.403571 3.439278,2.552781 4.085088,2.552781 0.21685,0 0.67258,-0.732045 1.01275,-1.626767 0.87665,-2.305786 2.01902,-1.28658 1.52277,1.358611 -0.26561,1.415871 -0.16158,2.174395 0.29822,2.174395 1.00549,0 0.87668,1.704827 -0.15884,2.102192 -0.53279,0.204452 -1.03062,1.877669 -1.29635,4.357019 -0.23727,2.213807 -0.59453,4.953495 -0.79391,6.088196 l -0.36252,2.063094 4.35938,-1.651002 c 2.39765,-0.908051 6.62426,-2.490629 9.39244,-3.516839 l 5.03308,-1.865838 6.78311,7.135974 6.78311,7.135975 2.00045,-5.964662 c 1.53366,-4.572876 1.81595,-6.085184 1.20978,-6.48117 -0.58859,-0.3845 -0.44257,-0.799511 0.57134,-1.623806 0.74911,-0.609013 1.5547,-1.750652 1.79021,-2.536976 0.61563,-2.055492 1.61338,-1.760777 1.61338,0.47656 0,2.027013 0.37492,2.180732 3.69788,1.516142 l 1.95048,-0.390097 -2.8279,-4.215408 c -1.59811,-2.382219 -2.52223,-4.317295 -2.12502,-4.449698 0.38658,-0.12886 2.23492,1.278728 4.10743,3.127973 l 3.40455,3.362264 0.72384,-1.858387 c 0.39811,-1.022112 0.76745,-2.573226 0.82074,-3.446919 0.15384,-2.521927 2.95626,-5.232487 2.95626,-2.859358 0,0.524216 0.42891,0.953119 0.95312,0.953119 1.26137,0 1.18357,-0.622387 -0.3177,-2.541651 -2.34338,-2.995828 -0.86145,-3.604734 2.03032,-0.83424 0.99076,0.949207 1.78215,1.344558 1.78215,0.890296 0,-0.690485 1.72033,-4.921322 2.32035,-5.706467 0.10483,-0.13717 0.62641,0.112293 1.15907,0.554363 0.80062,0.664454 0.96847,0.623464 0.96847,-0.236499 0,-1.288211 3.64129,-3.589042 4.90971,-3.102306 1.27622,0.489732 0.56652,3.97475 -1.08994,5.35219 -1.04242,0.866831 -1.09689,1.11 -0.31579,1.409736 1.22784,0.471166 1.22122,1.672927 -0.009,1.672927 -0.52422,0 -0.95312,0.278593 -0.95312,0.619095 0,0.340503 -0.90083,1.084931 -2.00184,1.654284 l -2.00183,1.03519 2.00183,1.267472 c 3.41137,2.159923 2.14632,3.012802 -2.06932,1.39511 -0.66716,-0.256013 -1.01215,-0.04036 -1.01215,0.632703 0,0.597492 0.52721,1.021101 1.27083,1.021101 0.69895,0 1.27082,0.142968 1.27082,0.317707 0,0.563358 -2.52194,2.859358 -3.14074,2.859358 -0.63388,0 -5.11962,2.520016 -5.11962,2.876116 0,0.114915 1.7871,1.278166 3.97133,2.585002 2.18423,1.306836 4.07144,2.452259 4.19381,2.545383 0.12236,0.09312 0.0458,0.455122 -0.17005,0.804437 -0.24313,0.393394 -2.08497,0.01027 -4.83933,-1.00664 -2.44574,-0.902968 -4.53927,-1.527168 -4.65229,-1.387111 -0.11302,0.140057 -0.079,1.464155 0.0756,2.942441 0.24827,2.373653 0.41712,2.615013 1.44465,2.065092 1.49244,-0.798731 3.15331,-0.800629 3.15331,-0.0036 0,0.340503 -0.82146,1.043891 -1.82548,1.563084 -1.00401,0.519196 -2.00478,1.598801 -2.22392,2.399116 -0.29297,1.069902 -0.53975,1.236431 -0.9322,0.629046 -0.40665,-0.629389 -1.84767,-0.04079 -6.05203,2.471928 l -5.51829,3.29801 8.11711,4.86537 c 6.5396,3.919824 8.15061,5.168258 8.2895,6.423859 0.0948,0.85716 -0.35539,5.358463 -1.00045,10.002887 -0.77601,5.587209 -0.94184,8.362829 -0.4901,8.203289 8.88301,-3.137052 10.74544,-3.98435 11.01382,-5.010631 0.34528,-1.32035 0.87261,-1.450037 1.86417,-0.458475 0.5021,0.502096 1.05338,0.502096 1.99155,0 1.606,-0.859505 3.28706,-0.899987 3.28706,-0.07916 0,0.338319 -0.7198,0.992261 -1.59955,1.453208 l -1.59955,0.838091 2.11919,2.053997 2.11919,2.054 1.49847,-4.778034 c 0.82415,-2.627915 1.73406,-4.778032 2.02201,-4.778032 0.62079,0 0.60848,2.886236 -0.0314,7.365156 l -0.46216,3.23496 2.57364,-0.98722 c 1.4155,-0.54298 2.75813,-1.25227 2.98362,-1.57622 0.69382,-0.99675 4.35561,-1.01368 4.35561,-0.0201 0,0.48358 -0.32094,0.87924 -0.71321,0.87924 -0.47203,0 -0.42699,0.34488 0.13318,1.01984 0.75068,0.90452 0.9261,0.78311 1.55126,-1.07361 1.09216,-3.243738 2.49467,-3.278432 1.97826,-0.0489 -0.36888,2.30683 -0.2881,2.56202 0.69954,2.20983 0.61411,-0.21899 1.40251,-0.60822 1.75198,-0.86496 1.17634,-0.86417 4.13019,-0.50285 4.13019,0.50522 0,0.72013 0.46597,0.85992 1.90624,0.57187 1.07531,-0.21506 1.90624,-0.1112 1.90624,0.23828 0,0.34074 0.57187,0.61953 1.27082,0.61953 0.8524,0 1.27083,0.42361 1.27083,1.28655 0,1.4828 -2.69827,2.7656 -4.92277,2.34036 -1.07021,-0.20458 -1.43136,0.0248 -1.43136,0.90909 0,0.65049 -0.28594,1.18271 -0.63541,1.18271 -0.34948,0 -0.63542,-0.21445 -0.63542,-0.47656 0,-0.2621 -0.78632,-0.49701 -1.74738,-0.52201 -0.96107,-0.025 -2.22342,-0.26069 -2.80523,-0.52376 -0.92223,-0.417 -1.01187,-0.13559 -0.69925,2.19516 0.44317,3.30411 -0.93951,3.27677 -2.05648,-0.0407 -0.4106,-1.21949 -0.91184,-1.84665 -1.15781,-1.44866 -0.23857,0.38601 -0.25926,1.15653 -0.046,1.71228 0.58877,1.53428 -2.04016,1.27796 -5.78463,-0.56401 -1.74739,-0.85957 -3.34619,-1.57179 -3.55289,-1.58272 -0.2067,-0.0109 -0.15227,1.33832 0.12097,2.99834 0.69235,4.20618 0.68155,7.1484 -0.0262,7.1484 -0.32932,0 -1.24341,-2.00156 -2.03131,-4.4479 -0.7879,-2.44633 -1.6087,-4.44789 -1.824,-4.44789 -0.2153,0 -1.17331,0.81607 -2.12889,1.81349 l -1.73744,1.8135 1.6388,1.07378 c 2.03409,1.33278 1.54662,2.47925 -0.69223,1.62805 -0.88558,-0.3367 -2.35215,-0.42594 -3.25905,-0.19833 -1.27407,0.31978 -1.56945,0.20679 -1.29938,-0.497 0.25858,-0.67386 -1.25256,-1.49176 -5.80798,-3.14356 l -6.15751,-2.23272 1.12749,8.29062 c 1.70995,12.57352 2.4355,10.88454 -7.11529,16.56357 l -8.28152,4.9243 5.17611,3.1115 c 3.39934,2.04343 5.58774,2.98085 6.37528,2.7309 0.87434,-0.27751 1.20026,-0.0678 1.20319,0.77418 0.002,0.63514 0.9048,1.66759 2.00575,2.29433 1.39716,0.79536 1.80038,1.34091 1.33503,1.80625 -0.46534,0.46535 -1.08758,0.44148 -2.06018,-0.079 -0.7664,-0.41017 -1.47215,-0.65111 -1.56832,-0.53543 -0.30872,0.37135 -1.01149,5.61135 -0.75258,5.61135 0.13726,0 2.14872,-0.71484 4.46991,-1.58853 2.32119,-0.8737 4.49974,-1.58854 4.84125,-1.58854 1.62159,0 0.23981,1.42864 -3.61422,3.73678 l -4.23512,2.53638 2.48773,1.46781 c 1.36826,0.80728 2.53619,1.32589 2.59541,1.15245 0.17004,-0.49805 3.3871,2.69735 3.3871,3.3643 0,0.32932 -0.57187,0.44921 -1.27082,0.26643 -0.93361,-0.24414 -1.27083,-0.0195 -1.27083,0.84659 0,1.09864 0.15005,1.11622 2.20354,0.25822 2.69225,-1.1249 2.87976,-1.13171 2.87976,-0.10458 0,0.44887 -0.92929,1.36845 -2.06509,2.04353 l -2.06509,1.2274 1.74301,0.61925 c 0.95865,0.34059 1.90853,1.14077 2.11084,1.77818 0.20231,0.63742 0.61342,1.00715 0.91359,0.82163 0.93556,-0.5782 1.48141,1.06369 0.55613,1.67279 -0.72889,0.47982 -0.70325,0.70909 0.15291,1.36772 1.55952,1.19969 2.18661,4.80663 0.92016,5.29261 -0.5565,0.21355 -1.3919,0.0728 -1.85645,-0.31272 -0.46456,-0.38554 -1.02208,-0.52355 -1.23895,-0.30668 -0.21686,0.21687 -0.73582,-0.35525 -1.15323,-1.27137 -0.59723,-1.31076 -0.94405,-1.51205 -1.62768,-0.94468 -0.47781,0.39654 -0.95451,0.60876 -1.05934,0.47159 -0.54734,-0.71626 -2.32032,-4.98573 -2.32032,-5.58759 0,-1.09972 -0.58199,-0.83121 -2.15035,0.99212 -2.13074,2.47713 -3.3721,1.39414 -1.63103,-1.42296 1.13674,-1.83928 1.1888,-2.17363 0.33844,-2.17363 -0.55272,0 -1.00495,0.4289 -1.00495,0.95312 0,1.38957 -1.1176,1.16605 -1.58853,-0.31771 -0.22184,-0.69896 -0.62235,-1.27083 -0.89003,-1.27083 -0.26769,0 -0.49955,-0.78632 -0.51525,-1.74738 -0.0157,-0.96106 -0.33738,-2.52097 -0.71483,-3.46646 l -0.68627,-1.71908 -3.42461,3.5637 c -4.42982,4.60973 -5.82959,4.06467 -2.45648,-0.95653 1.33636,-1.9893 2.63938,-3.97433 2.8956,-4.41118 0.34452,-0.58738 -0.28866,-0.79426 -2.431,-0.79426 -2.79512,0 -2.89686,0.0669 -2.89686,1.90624 0,2.57641 -1.00645,2.40866 -1.90624,-0.31771 -0.40368,-1.22317 -1.14069,-2.22394 -1.6378,-2.22394 -1.01919,0 -1.23593,-1.05149 -0.28379,-1.37673 0.50339,-0.17195 -0.94415,-5.83082 -2.88904,-11.29412 -0.22202,-0.62366 -2.49927,1.25084 -7.14039,5.87757 -3.74793,3.7363 -7.11751,6.79328 -7.48797,6.79328 -0.37046,0 -4.48085,-1.43686 -9.1342,-3.19303 -4.65336,-1.75616 -8.55763,-3.09603 -8.67618,-2.97748 -0.11855,0.11855 0.15819,2.9136 0.61498,6.21124 0.54082,3.90421 1.09068,5.94027 1.57632,5.83684 0.91866,-0.19568 0.99367,1.51917 0.0909,2.07714 -0.37984,0.23475 -0.48358,1.31803 -0.24699,2.57915 0.49744,2.65158 -1.04745,3.09909 -1.99366,0.57749 l -0.59922,-1.59689 -2.391822,1.45959 -2.391834,1.45959 4.139216,2.42134 c 5.63343,3.29542 5.59648,4.745 -0.0666,2.61341 -2.313207,-0.87069 -4.495374,-1.58307 -4.849261,-1.58307 -0.401244,0 -0.480537,1.01645 -0.210671,2.70051 0.913844,5.70269 0.922511,6.83068 0.05249,6.83068 -0.466082,0 -0.942731,-0.27677 -1.059227,-0.61504 -0.122019,-0.35434 -0.578448,-0.38726 -1.076746,-0.0777 -0.655193,0.40707 -0.385543,0.82056 1.111973,1.70517 1.087306,0.64228 1.976916,1.53505 1.976916,1.98391 0,1.0262 -0.188756,1.0198 -2.861443,-0.0969 l -2.185216,-0.91304 0.318252,3.82121 c 0.30118,3.61613 0.249044,3.79924 -0.971438,3.41187 -1.108262,-0.35175 -1.289698,-0.12986 -1.289698,1.57723 0,1.0926 -0.253428,1.82993 -0.563173,1.63849 -0.309744,-0.19143 -0.711878,0.2206 -0.893632,0.91563 -0.386744,1.47891 -2.260805,1.695 -2.693318,0.31055 z m 7.53833,-16.56777 c 0.841293,-0.32283 0.837817,-0.69544 -0.03025,-3.24309 l -0.980754,-2.87836 -2.221524,2.22152 c -1.221842,1.22184 -2.025767,2.53826 -1.786508,2.92539 0.750245,1.21393 1.42628,0.77611 2.024985,-1.31144 0.31789,-1.10842 0.962021,-2.14332 1.431407,-2.29979 0.667279,-0.22242 0.756968,0.28645 0.411201,2.33302 -0.461475,2.73147 -0.401562,2.8487 1.151451,2.25275 z m 7.8255,-15.83611 c -0.1317,-0.35068 -1.053212,-3.1433 -2.047805,-6.20584 -0.994593,-3.06253 -1.962631,-5.49299 -2.151203,-5.40101 -0.188578,0.092 -2.269187,2.18781 -4.623589,4.65739 l -4.280726,4.49015 2.157112,2.09076 2.157113,2.09076 1.454422,-4.51582 c 0.89374,-2.77499 1.799833,-4.51582 2.350444,-4.51582 0.49282,0 0.750569,0.37908 0.572774,0.8424 -0.177789,0.46331 -0.525017,2.7264 -0.771608,5.02909 l -0.44836,4.18669 2.935437,-1.05558 c 1.614489,-0.58056 2.827679,-1.34249 2.695989,-1.69317 z m 54.47786,1.70557 c 0.17546,-0.28391 -0.23468,-1.35617 -0.91144,-2.3828 l -1.23045,-1.8666 -0.004,2.3828 c -0.003,1.653 0.27624,2.3828 0.91143,2.3828 0.50359,0 1.05918,-0.23229 1.23465,-0.5162 z m 2.51606,-3.92777 c -0.29488,-0.27308 -1.25098,-0.70557 -2.12468,-0.96109 -1.57618,-0.46097 -1.57371,-0.44881 0.31771,1.56384 1.53598,1.63443 1.94866,1.82111 2.12468,0.96109 0.12014,-0.58704 -0.0228,-1.29076 -0.31771,-1.56384 z m -4.03092,-1.27475 c 0,-0.34948 -0.28593,-0.63541 -0.63541,-0.63541 -0.34948,0 -0.63541,0.28593 -0.63541,0.63541 0,0.34948 0.28593,0.63541 0.63541,0.63541 0.34948,0 0.63541,-0.28593 0.63541,-0.63541 z m -24.14569,-20.00533 c 0,-0.1247 -1.93007,-0.40265 -4.28904,-0.61767 -2.35897,-0.21501 -5.10325,-0.52214 -6.0984,-0.6825 l -1.80938,-0.29156 0.45099,3.8857 c 0.56638,4.88 -0.76342,4.96832 -2.22592,0.14785 l -0.96045,-3.16571 -5.08331,3.05261 c -2.79582,1.67894 -5.0833,3.2206 -5.0833,3.42591 0,0.2053 3.43123,2.44657 7.62495,4.98058 l 7.62496,4.60731 4.92445,-7.5579 c 2.70845,-4.15684 4.92445,-7.65992 4.92445,-7.78462 z m 16.52074,14.25175 c 0,-0.36866 -1.14375,-2.35452 -2.54165,-4.41303 -1.39791,-2.05851 -2.54166,-3.9014 -2.54166,-4.09532 0,-1.14934 2.0458,0.0632 4.7656,2.8245 1.72111,1.74738 3.30923,3.17706 3.52916,3.17706 0.42293,0 2.10403,-5.11115 1.75704,-5.34202 -0.11159,-0.0743 -2.93838,-1.13589 -6.28175,-2.3592 l -6.07885,-2.22421 0.81433,5.75698 c 0.44789,3.16634 0.8244,6.1144 0.8367,6.55125 0.0278,0.98568 5.74108,1.10907 5.74108,0.12399 z m -56.718375,-10.65702 3.328154,-0.42784 -3.255875,-4.92445 c -1.790728,-2.70845 -3.44676,-4.92445 -3.680065,-4.92445 -0.233304,0 -1.394185,1.00077 -2.579725,2.22394 -3.599793,3.71405 -4.374889,2.60536 -1.301498,-1.86166 l 1.875561,-2.72603 -6.021122,-2.24137 -6.021122,-2.24138 0.319434,1.99357 c 0.175686,1.09647 0.617647,4.28105 0.982139,7.07687 0.364492,2.79582 0.818603,6.04517 1.009138,7.22078 l 0.346433,2.13748 5.835194,-0.43881 c 3.209363,-0.24135 7.332869,-0.63134 9.163354,-0.86665 z m 16.842145,-4.03006 c 2.07902,-0.75804 3.92607,-1.75882 4.10455,-2.22394 0.17849,-0.46512 1.02803,-0.84568 1.88789,-0.84568 1.20032,0 1.48106,-0.25822 1.20895,-1.11197 -0.19494,-0.61159 -2.01313,-6.07681 -4.04043,-12.14494 l -3.68601,-11.03297 -8.763864,9.09634 c -6.839414,7.09888 -8.577771,9.24254 -7.916388,9.76215 0.466113,0.36618 1.241057,1.42939 1.72209,2.36268 0.94686,1.83706 5.620024,6.65624 6.016496,6.20449 0.133424,-0.15203 1.461031,-3.99359 2.950235,-8.53679 4.187891,-12.77627 4.994351,-12.6926 3.182881,0.33022 -0.69799,5.01797 -1.26908,9.21248 -1.26908,9.32113 0,0.3996 0.90574,0.16725 4.60268,-1.18072 z M 40.783,142.00503 c 0.572466,-0.87369 0.898198,-1.58853 0.72385,-1.58853 -0.861678,0 -4.100177,2.38986 -3.7343,2.75573 0.837164,0.83717 1.990008,0.39019 3.01045,-1.1672 z m -0.09683,-2.57019 c 2.650296,-0.12796 2.920093,-0.92458 0.313137,-0.92458 -1.252833,0 -2.69259,-0.15914 -3.19946,-0.35365 -0.579086,-0.22221 -1.051117,0.14171 -1.270135,0.97923 -0.297924,1.13927 -0.148536,1.26392 1.028467,0.85821 0.75736,-0.26107 2.164956,-0.51271 3.127991,-0.55921 z m 88.72206,-0.039 c 0.13442,-0.1152 -2.08159,-3.76042 -4.92445,-8.1005 -2.84286,-4.34004 -5.16884,-8.06637 -5.16884,-8.2807 0,-1.45265 2.429,0.49847 8.00062,6.42663 l 6.41208,6.82238 1.35678,-4.11885 c 0.74622,-2.26536 1.32531,-4.69072 1.28688,-5.38967 -0.0384,-0.69896 0.10987,-1.69973 0.32959,-2.22395 0.31457,-0.75051 -2.05367,-1.86472 -11.14122,-5.24172 -6.34739,-2.35874 -11.65195,-4.17737 -11.78792,-4.04139 -0.2277,0.2277 1.93014,17.65326 2.78829,22.51677 0.32573,1.84605 0.56417,2.06594 1.88165,1.73528 0.82976,-0.20826 1.50866,-0.1039 1.50866,0.2319 0,0.54374 8.79599,0.23112 9.45787,-0.33615 z m -70.145074,-4.8569 3.511702,-5.24216 -2.388636,-0.39284 c -1.313749,-0.21606 -4.318703,-0.56272 -6.677673,-0.77036 l -4.289038,-0.37752 -0.0087,1.72348 c -0.0048,0.94791 -0.184017,2.37803 -0.398323,3.17804 l -0.389646,1.45456 4.286452,-1.61341 c 7.316551,-2.75394 8.231448,-1.88777 1.911204,1.80942 -2.271602,1.32883 -4.130185,2.5039 -4.130185,2.61127 0,0.30876 4.078791,2.83909 4.595651,2.85097 0.256007,0.006 2.045733,-2.34827 3.977168,-5.23145 z m 87.185774,-0.10317 c 4.12281,-1.54202 7.96124,-2.98881 8.52986,-3.21507 0.91228,-0.36301 0.74083,-1.32213 -1.45814,-8.15719 -1.37058,-4.2602 -2.63337,-8.1559 -2.80619,-8.65712 -0.21687,-0.62896 -1.68107,0.44508 -4.72606,3.46674 l -4.41185,4.37804 3.16599,1.82787 c 4.80199,2.77241 3.95121,4.06042 -1.29541,1.96113 -1.41948,-0.56796 -2.73185,-0.88167 -2.91639,-0.69713 -0.34921,0.3492 -2.04524,11.8964 -1.74732,11.8964 0.0932,0 3.54272,-1.26165 7.66551,-2.80367 z M 91.98448,122.68252 c 3.563682,-5.38522 6.606033,-10.12123 6.760763,-10.52446 0.196634,-0.51243 -2.505485,-0.96994 -8.975024,-1.51963 -5.090993,-0.43256 -10.676838,-0.9547 -12.412983,-1.16033 -3.082312,-0.36505 -3.156624,-0.33437 -3.156624,1.30319 0,0.92237 -0.251395,1.67704 -0.558649,1.67704 -0.510738,0 -2.163784,8.92681 -1.732847,9.35774 0.102822,0.10283 4.0987,-1.28643 8.879725,-3.08722 8.061808,-3.03651 9.986747,-3.45257 9.063689,-1.95903 -0.198363,0.32096 -3.822657,2.65366 -8.05398,5.18379 -4.231329,2.53012 -7.600378,4.68686 -7.486779,4.79275 1.274772,1.18824 7.860853,4.6013 8.445846,4.37681 0.42382,-0.16263 1.143076,0.15313 1.598349,0.70169 0.455267,0.54857 0.900057,0.919 0.988417,0.82319 0.08837,-0.0958 3.076409,-4.58031 6.640097,-9.96553 z M 68.540061,108.79419 c -5.829192,-0.43261 -6.968443,-1.71735 -1.950432,-2.19951 1.755068,-0.16864 3.348906,-0.46449 3.541856,-0.65744 0.192955,-0.19295 -0.435144,-2.96975 -1.395768,-6.170652 l -1.746591,-5.819823 -6.211319,6.555275 c -3.416225,3.6054 -6.225646,6.8361 -6.243158,7.17932 -0.01751,0.34323 2.754513,3.42089 6.160055,6.83926 l 6.191892,6.21522 1.967791,-5.88614 1.967785,-5.88614 z m 71.816919,9.38285 c 0.64315,0 5.86176,-7.62029 5.48003,-8.00202 -0.15351,-0.15352 -4.18059,-0.61397 -8.94905,-1.02324 -7.9857,-0.68538 -10.70205,-1.23458 -9.92914,-2.0075 0.16492,-0.16491 4.44568,-0.65306 9.5128,-1.08476 5.06712,-0.43172 9.32227,-0.87438 9.45588,-0.98372 0.48799,-0.39931 -4.71474,-7.856436 -5.48509,-7.861824 -0.43684,-0.0032 -0.79864,-0.220012 -0.80399,-0.48212 -0.005,-0.262108 -0.24698,-0.85064 -0.53695,-1.307851 -0.39778,-0.627216 -2.93029,0.603807 -10.31573,5.014355 -5.38368,3.21511 -10.16408,6.19097 -10.62311,6.61303 -0.66843,0.61461 1.29234,2.03635 9.8489,7.14136 9.715,5.79615 10.7355,6.26567 11.25716,5.17914 0.31551,-0.65717 0.80524,-1.19485 1.08829,-1.19485 z m 29.99014,-6.28894 1.63885,-2.47646 -1.39556,-0.37422 c -0.76756,-0.20582 -2.5874,-0.37813 -4.04409,-0.3829 -2.88794,-0.009 -4.65872,-0.4965 -4.65872,-1.28135 0,-0.27571 2.28614,-0.70366 5.08032,-0.951 l 5.08032,-0.44971 -1.10899,-1.88923 c -1.94582,-3.31482 -2.18762,-3.30916 -8.03945,0.18819 l -5.49151,3.282 5.57557,3.38194 c 3.06657,1.86006 5.60906,3.39256 5.64999,3.40557 0.0409,0.013 0.8119,-1.09078 1.71327,-2.45283 z m 15.52618,-2.44456 c 0.13446,-0.40339 -0.65251,-0.79887 -1.81759,-0.91341 -2.94104,-0.28912 -3.19202,-1.79052 -0.29931,-1.79052 2.30662,0 2.65061,-0.33448 1.7696,-1.7207 -0.35876,-0.56448 -1.21173,-0.3359 -3.22364,0.86386 l -2.7358,1.63143 2.4391,1.4979 c 2.52228,1.54898 3.46025,1.65361 3.86764,0.43144 z m -97.429608,-4.9281 c 5.562094,-0.52325 10.228199,-1.06667 10.369114,-1.20759 0.140922,-0.14093 -2.81568,-4.86646 -6.570227,-10.5012 -4.663595,-6.999023 -7.032878,-10.038553 -7.477985,-9.593446 -0.358347,0.358347 -1.200308,0.651539 -1.871018,0.651539 -0.67071,0 -2.936961,1.043317 -5.036111,2.318483 l -3.81664,2.318488 2.462689,1.502568 c 1.354484,0.826411 4.964634,2.99099 8.022559,4.810184 3.057925,1.819193 5.559863,3.704508 5.559863,4.189595 0,0.485081 -0.357419,0.75034 -0.794266,0.589466 -0.436846,-0.16088 -4.447395,-1.661357 -8.912334,-3.334393 -4.464945,-1.673042 -8.239368,-2.920593 -8.387623,-2.772345 -0.487006,0.487013 1.078105,9.440341 1.65025,9.440341 0.307254,0 0.558649,0.69687 0.558649,1.54859 0,1.38069 0.223894,1.51836 2.065092,1.26984 1.135801,-0.15331 6.615895,-0.70686 12.177988,-1.23012 z M 153.31624,92.740503 c 1.56164,-4.656001 2.77085,-8.507786 2.68714,-8.559514 -0.0837,-0.05172 -2.72562,-1.042338 -5.87092,-2.201357 -3.14529,-1.159012 -7.02958,-2.615855 -8.63176,-3.237429 l -2.91304,-1.130139 0.84231,6.085953 c 0.46326,3.34728 0.93337,6.177022 1.04467,6.288327 0.11131,0.111305 1.67341,-0.356575 3.47135,-1.039739 4.25124,-1.615347 4.94218,-0.559005 1.13751,1.7391 -1.59154,0.961322 -2.8937,2.028187 -2.8937,2.370802 0,0.683228 7.74347,8.693093 8.07931,8.357253 0.11429,-0.11429 1.4855,-4.017256 3.04713,-8.673257 z m -27.96488,3.170628 c 5.94111,-2.183063 11.06154,-4.201808 11.37873,-4.486098 0.33969,-0.304452 0.25192,-0.908234 -0.21356,-1.4691 -0.43464,-0.52372 -0.60902,-1.245473 -0.3875,-1.603897 0.22152,-0.358424 -0.18147,-2.613396 -0.89552,-5.011044 l -1.29827,-4.359359 -6.90055,6.97747 c -3.79529,3.837608 -7.07739,6.69133 -7.29352,6.341605 -0.21614,-0.349724 1.8997,-4.141469 4.70188,-8.426103 2.80218,-4.284628 4.93714,-7.94798 4.74434,-8.140771 -0.47816,-0.478167 -12.41399,-0.658466 -12.41455,-0.18753 -2.5e-4,0.206675 -0.71508,5.497034 -1.58854,11.756354 -1.74032,12.471498 -1.81134,13.293712 -1.11152,12.867752 0.2621,-0.15954 5.33746,-2.076209 11.27858,-4.259279 z M 112.06812,74.143046 c -0.71246,-0.279518 -1.45707,-0.769822 -1.65467,-1.089556 -0.47846,-0.774168 -8.895,-3.924685 -8.87257,-3.321227 0.01,0.259109 0.56355,4.459055 1.23095,9.333219 1.15669,8.447536 1.17315,10.276083 0.0865,9.604477 -0.26592,-0.16435 -1.74008,-4.313361 -3.275914,-9.22002 l -2.792411,-8.921205 -3.352019,3.310381 c -1.843613,1.820712 -3.35202,3.642556 -3.35202,4.048553 0,0.405991 -0.423649,1.089758 -0.94144,1.519488 -0.797539,0.661904 0.392177,2.188229 7.783809,9.986074 l 8.725245,9.204745 3.85498,-11.97336 c 3.73395,-11.597449 3.81431,-11.989315 2.55959,-12.481569 z M 62.649133,86.078891 c 0.112013,-0.102143 -1.429249,-2.639423 -3.425026,-5.638401 l -3.628687,-5.452682 -2.426705,1.363889 c -1.334688,0.750137 -2.289323,1.586175 -2.121411,1.857865 0.167912,0.271683 1.865858,1.386839 3.773212,2.478117 6.119696,3.501335 5.594818,4.726049 -0.953119,2.223945 -2.486413,-0.950114 -4.628971,-1.619255 -4.76124,-1.486987 -0.132268,0.132268 -0.07449,1.478123 0.128406,2.990787 l 0.368893,2.750303 6.421008,-0.450559 c 3.531555,-0.247811 6.512656,-0.534135 6.624669,-0.636277 z m 15.52281,-4.49183 c 2.708448,-1.002249 4.924451,-2.0587 4.924451,-2.34766 0,-0.28896 -0.71484,-1.577362 -1.588533,-2.86312 -3.027603,-4.455516 -1.643254,-5.417874 1.811239,-1.259115 1.228888,1.479419 2.353347,2.551678 2.498799,2.382798 0.145446,-0.16888 1.737105,-2.51011 3.537014,-5.202723 l 3.272561,-4.895673 -2.065035,-0.318742 c -3.663963,-0.565543 -15.928844,-1.654431 -16.14951,-1.433765 -0.117621,0.117615 -0.638094,3.334972 -1.156617,7.149673 -0.518516,3.814702 -1.110187,7.903438 -1.314822,9.086082 -0.280897,1.62334 -0.166465,2.073587 0.466965,1.837385 0.461469,-0.17207 3.05504,-1.132884 5.763488,-2.13514 z m -36.07505,-5.322416 c 0.476079,-0.770311 -2.318506,-5.157405 -3.121987,-4.901073 -1.298889,0.414384 -0.886145,1.437215 1.017293,2.520981 2.800939,1.594773 1.545259,2.713951 -1.57992,1.408171 -2.471402,-1.032616 -2.558663,-1.006793 -1.950756,0.577387 0.431072,1.123359 4.987771,1.442375 5.63537,0.394534 z M 129.40484,70.78201 c 0.13255,-0.117386 -1.9992,-3.645059 -4.73722,-7.839263 l -4.97823,-7.625826 -2.92776,1.724505 c -1.61027,0.948478 -5.12225,3.011216 -7.8044,4.583864 -2.68214,1.572647 -4.87825,3.002326 -4.88025,3.177064 -0.002,0.174739 2.35346,1.673024 5.23436,3.329526 l 5.238,3.011813 1.16492,-3.488373 c 1.58462,-4.745168 2.61495,-4.557469 2.05694,0.374716 l -0.43707,3.863095 5.91485,-0.448837 c 3.25317,-0.246864 6.02331,-0.544892 6.15586,-0.662284 z m 16.77873,-4.860458 c 5.34952,-2.036249 5.193,-1.757862 3.48727,-6.202501 -0.6049,-1.576191 -0.6362,-1.559028 -4.02864,2.208869 -4.62936,5.141709 -5.7752,4.111298 -1.88188,-1.692296 l 2.82129,-4.205548 -2.99017,-0.267505 c -1.6446,-0.147128 -3.03844,-0.245787 -3.09744,-0.219243 -0.059,0.02655 -0.50561,2.980693 -0.99247,6.564774 -1.022,7.523531 -1.83936,7.057061 6.68204,3.81345 z M 98.399254,45.628237 c -1.252291,-0.585667 -2.519419,-1.086054 -2.815845,-1.111973 -0.510625,-0.04465 -0.04569,6.629703 0.627495,9.00751 0.191673,0.67705 -0.03101,1.111973 -0.569266,1.111973 -0.544174,0 -1.462028,-1.842888 -2.387323,-4.793302 l -1.50326,-4.793301 -2.248981,2.248984 -2.248987,2.248985 4.70463,4.736236 4.704623,4.736236 2.006901,-6.16325 2.006899,-6.16325 z m 59.675866,2.47477 c 0,-1.245401 -0.11881,-1.216151 -1.8683,0.459975 -1.13118,1.08373 -2.25933,1.639904 -2.85936,1.409648 -0.6086,-0.23354 -0.99105,-0.03507 -0.99105,0.514307 0,0.757399 0.43855,0.74518 2.85936,-0.07967 2.16782,-0.738652 2.85935,-1.295936 2.85935,-2.304257 z m -2.55578,-2.521895 c 0.008,-0.262108 -0.55774,-0.47656 -1.25669,-0.47656 -1.01304,0 -1.26796,0.4189 -1.2567,2.065092 l 0.0141,2.065093 1.24259,-1.588533 c 0.68341,-0.873693 1.24892,-1.802984 1.25669,-2.065092 z M 92.794651,34.202464 c 0.948208,-2.844352 0.937565,-2.97224 -0.273577,-3.288962 -1.146558,-0.299831 -1.222153,-0.104663 -0.838669,2.16516 0.335593,1.986379 0.226175,2.494696 -0.537013,2.494696 -0.548329,0 -1.137643,-0.81571 -1.377162,-1.906239 -0.430143,-1.958419 -1.187816,-2.43326 -1.94017,-1.215923 -0.34468,0.557706 3.490323,5.374049 3.869786,4.860029 0.06062,-0.08213 0.5542,-1.481077 1.096805,-3.108761 z m -69.110095,80.161376 -3.773422,-3.81322 -3.532362,3.49551 c -3.683064,3.64463 -5.008052,4.16519 -6.3834425,2.50795 -0.7001787,-0.84366 -0.2494028,-1.56284 3.0939155,-4.93615 l 3.913506,-3.9486 -3.953982,-3.95399 -3.9539817,-3.953975 1.4173227,-1.417326 1.417323,-1.417321 3.983386,3.947982 3.983386,3.94798 3.953982,-3.95399 3.953982,-3.953975 1.423325,1.423325 1.423325,1.423325 -3.953982,3.953975 -3.953981,3.95399 3.925665,3.96087 c 3.862607,3.89725 3.90687,3.98164 2.75553,5.25386 -0.643574,0.71114 -1.349221,1.29298 -1.568104,1.29298 -0.218883,0 -2.096009,-1.71594 -4.171391,-3.8132 z M 181.5854,78.146027 c 0,-1.857497 0.0793,-1.906239 3.09927,-1.906239 3.30355,0 4.79268,-1.003711 4.41313,-2.974559 -0.11962,-0.621148 -1.07252,-1.384914 -2.11756,-1.697258 -3.99662,-1.194513 -4.8001,-1.724498 -5.80309,-3.827791 -1.2459,-2.612672 -0.7968,-4.967599 1.35833,-7.122733 1.28319,-1.283187 2.16148,-1.533809 5.37517,-1.533809 3.67384,0 3.84136,0.06927 3.84136,1.588532 0,1.422138 -0.25886,1.588533 -2.47126,1.588533 -3.22063,0 -5.79009,1.941008 -4.77227,3.605047 0.38453,0.628658 1.74083,1.389368 3.01401,1.690465 5.19918,1.229581 7.20231,7.079358 3.64298,10.638688 -1.64535,1.645351 -2.29811,1.857363 -5.71871,1.857363 H 181.5854 Z M 48.262818,48.519861 c -3.420112,-1.743767 -5.404392,-4.893038 -5.694183,-9.037297 -0.208364,-2.979766 0.002,-3.960349 1.234774,-5.75702 1.917722,-2.794825 4.215521,-4.47212 6.9361,-5.063058 2.752753,-0.597925 6.789154,0.231349 8.846605,1.817527 l 1.588532,1.224668 -1.353221,1.36367 c -1.297135,1.307152 -1.421627,1.31885 -3.003656,0.282265 -3.375675,-2.211827 -8.660181,-0.825507 -9.968276,2.615045 -1.180584,3.105172 -0.725695,5.334852 1.553352,7.6139 2.485123,2.485123 5.092328,2.827477 8.082248,1.061289 1.41694,-0.837008 2.122198,-0.934139 2.957398,-0.407309 4.599005,2.900978 -5.958068,6.948591 -11.179673,4.28632 z m 84.249072,-20.262668 -2.03228,-4.121269 h -3.24156 -3.24156 l -1.8222,3.812478 c -1.80904,3.784956 -2.78881,4.440772 -4.7656,3.189907 -0.80047,-0.50652 -0.21577,-2.082315 3.65083,-9.839171 6.18251,-12.4028255 6.19159,-12.4030848 12.23025,-0.348747 2.44868,4.888021 4.45214,9.131162 4.45214,9.429201 0,0.298038 -0.71949,0.869709 -1.59887,1.270379 -1.5423,0.702721 -1.67074,0.58271 -3.63115,-3.392778 z m -4.3109,-8.410306 c -0.0125,-0.608327 -1.23834,-2.526712 -1.25137,-1.958208 -0.005,0.233525 -0.18329,0.87688 -0.39542,1.42968 -0.25309,0.659547 -0.0346,1.005088 0.63541,1.005088 0.56161,0 1.01673,-0.214452 1.01138,-0.47656 z" id="path223644" /></g></svg>