<svg id="svg" version="1.1" xmlns="http://www.w3.org/2000/svg" xmlns:xlink="http://www.w3.org/1999/xlink" width="400" height="400" viewBox="0, 0, 400,400"><g id="svgg"><path id="path0" d="M0.000 97.800 C 0.000 185.486,0.105 197.255,0.867 195.249 C 0.940 195.056,1.750 194.021,2.667 192.949 C 3.584 191.877,5.093 190.100,6.020 189.000 C 8.798 185.703,14.506 179.046,28.485 162.800 C 31.041 159.830,33.462 157.040,33.866 156.600 C 34.270 156.160,35.409 154.810,36.399 153.600 C 38.433 151.111,45.262 143.105,45.610 142.800 C 45.736 142.690,48.161 139.810,51.000 136.400 C 53.839 132.990,56.260 130.110,56.381 130.000 C 56.850 129.572,61.989 123.613,65.005 120.000 C 66.749 117.910,68.272 116.110,68.388 116.000 C 68.505 115.890,69.680 114.541,71.000 113.002 C 72.320 111.462,73.940 109.592,74.600 108.845 C 75.260 108.099,75.980 107.284,76.200 107.034 C 76.420 106.785,77.406 105.595,78.391 104.390 C 79.376 103.186,80.841 101.480,81.647 100.600 C 82.452 99.720,83.624 98.370,84.249 97.600 C 84.875 96.830,85.490 96.110,85.617 96.000 C 85.743 95.890,86.106 95.423,86.423 94.961 C 86.889 94.284,89.194 91.598,92.200 88.229 C 92.420 87.982,93.585 86.615,94.788 85.190 C 95.992 83.766,97.372 82.150,97.856 81.600 C 98.339 81.050,99.194 80.060,99.755 79.400 L 100.775 78.200 100.800 117.000 C 100.824 153.317,100.877 156.210,101.626 162.200 C 102.687 170.680,103.602 175.757,104.367 177.400 C 104.572 177.840,104.834 178.650,104.948 179.200 C 105.526 181.966,106.169 184.000,106.467 184.000 C 106.650 184.000,106.800 184.362,106.800 184.805 C 106.800 185.248,106.971 185.923,107.181 186.305 C 107.390 186.687,107.858 187.720,108.220 188.600 C 108.583 189.480,109.312 191.103,109.840 192.206 C 110.368 193.309,110.800 194.419,110.800 194.672 C 110.800 194.926,110.935 195.193,111.100 195.267 C 111.265 195.340,111.892 196.357,112.493 197.526 C 114.045 200.547,114.962 202.169,115.246 202.400 C 115.381 202.510,115.619 203.005,115.773 203.500 C 115.928 203.995,116.222 204.400,116.427 204.400 C 116.632 204.400,116.800 204.583,116.800 204.806 C 116.800 205.263,120.130 209.971,122.584 212.984 C 129.977 222.061,139.064 229.908,149.316 236.070 C 152.804 238.166,160.046 241.728,163.000 242.799 C 163.440 242.959,164.481 243.384,165.314 243.745 C 166.146 244.105,167.093 244.400,167.419 244.400 C 167.745 244.400,168.323 244.558,168.705 244.752 C 169.857 245.335,173.352 246.404,174.100 246.402 C 174.762 246.400,174.800 248.494,174.800 284.791 L 174.800 323.182 198.980 323.291 C 217.037 323.372,223.281 323.521,223.637 323.877 C 224.091 324.331,223.226 325.458,217.870 331.391 C 217.468 331.836,216.119 333.460,214.871 335.000 C 213.623 336.540,212.506 337.890,212.388 338.000 C 211.900 338.457,203.941 347.682,201.000 351.200 C 199.253 353.290,197.728 355.090,197.612 355.200 C 197.495 355.310,196.717 356.251,195.881 357.290 C 195.046 358.330,194.145 359.410,193.879 359.690 C 193.614 359.971,192.317 361.460,190.998 363.000 C 189.679 364.540,188.505 365.890,188.388 366.000 C 188.272 366.110,186.745 367.910,184.995 370.000 C 183.245 372.090,181.594 374.029,181.325 374.310 C 181.057 374.590,180.154 375.670,179.319 376.710 C 178.483 377.749,177.707 378.690,177.594 378.800 C 177.481 378.910,176.311 380.256,174.994 381.790 C 171.465 385.902,170.358 387.180,168.760 388.979 C 167.558 390.333,164.226 394.219,160.765 398.303 C 160.344 398.800,160.000 399.385,160.000 399.603 C 160.000 399.865,200.880 400.000,280.000 400.000 L 400.000 400.000 400.000 200.000 L 400.000 0.000 200.000 0.000 L 0.000 0.000 0.000 97.800 M150.443 117.800 C 150.577 139.580,150.808 157.940,150.957 158.600 C 151.105 159.260,151.425 160.790,151.667 162.000 C 152.418 165.749,153.191 168.026,154.929 171.606 C 155.518 172.820,156.000 173.973,156.000 174.169 C 156.000 174.364,156.450 175.114,157.000 175.836 C 157.550 176.557,158.000 177.251,158.000 177.380 C 158.000 178.482,164.234 185.624,167.687 188.477 C 168.834 189.425,170.128 190.515,170.562 190.900 C 170.996 191.285,171.484 191.600,171.647 191.600 C 171.810 191.600,172.185 191.842,172.480 192.137 C 173.838 193.495,181.568 197.392,184.800 198.348 C 191.690 200.386,203.358 200.896,209.800 199.441 C 224.559 196.108,237.122 186.118,243.557 172.600 C 248.686 161.827,248.800 160.545,248.800 113.828 L 248.800 77.994 273.100 78.097 L 297.400 78.200 297.391 119.200 C 297.382 162.645,297.439 161.011,295.565 170.800 C 294.551 176.093,292.064 184.313,290.563 187.332 C 290.253 187.955,290.000 188.660,290.000 188.899 C 290.000 189.370,285.407 198.671,283.728 201.600 C 279.186 209.526,270.369 219.809,262.400 226.476 C 259.743 228.698,252.564 234.000,252.211 234.000 C 252.103 234.000,251.003 234.648,249.766 235.439 C 246.545 237.499,239.245 241.093,235.600 242.413 C 234.830 242.692,233.660 243.150,233.000 243.431 C 232.340 243.712,230.090 244.472,228.000 245.119 L 224.200 246.296 224.098 284.548 L 223.996 322.800 199.600 322.800 L 175.204 322.800 175.102 284.530 L 175.000 246.260 173.200 245.575 C 172.210 245.199,170.590 244.673,169.600 244.406 C 168.610 244.140,167.483 243.757,167.095 243.555 C 166.708 243.353,165.538 242.910,164.495 242.571 C 162.336 241.869,161.840 241.651,155.800 238.742 C 151.381 236.614,144.093 232.296,142.600 230.921 C 142.160 230.515,141.241 229.827,140.558 229.392 C 137.220 227.264,128.020 218.619,124.603 214.400 C 123.445 212.970,122.115 211.367,121.649 210.839 C 121.182 210.310,120.800 209.759,120.800 209.614 C 120.800 209.469,120.445 208.970,120.011 208.504 C 117.841 206.175,111.174 194.347,109.191 189.309 C 108.692 188.039,108.056 186.460,107.779 185.800 C 106.571 182.922,104.517 176.094,103.965 173.125 C 101.745 161.177,101.921 165.290,101.716 120.483 C 101.612 97.758,101.629 78.902,101.752 78.580 C 101.947 78.072,105.216 78.008,126.089 78.097 L 150.200 78.200 150.443 117.800 " stroke="none" fill="#5c83ab" fill-rule="evenodd"></path><path id="path1" d="M101.752 78.580 C 101.629 78.902,101.612 97.758,101.716 120.483 C 101.921 165.290,101.745 161.177,103.965 173.125 C 104.517 176.094,106.571 182.922,107.779 185.800 C 108.056 186.460,108.692 188.039,109.191 189.309 C 111.174 194.347,117.841 206.175,120.011 208.504 C 120.445 208.970,120.800 209.469,120.800 209.614 C 120.800 209.759,121.182 210.310,121.649 210.839 C 122.115 211.367,123.445 212.970,124.603 214.400 C 128.020 218.619,137.220 227.264,140.558 229.392 C 141.241 229.827,142.160 230.515,142.600 230.921 C 144.093 232.296,151.381 236.614,155.800 238.742 C 161.840 241.651,162.336 241.869,164.495 242.571 C 165.538 242.910,166.708 243.353,167.095 243.555 C 167.483 243.757,168.610 244.140,169.600 244.406 C 170.590 244.673,172.210 245.199,173.200 245.575 L 175.000 246.260 175.102 284.530 L 175.204 322.800 199.600 322.800 L 223.996 322.800 224.098 284.548 L 224.200 246.296 228.000 245.119 C 230.090 244.472,232.340 243.712,233.000 243.431 C 233.660 243.150,234.830 242.692,235.600 242.413 C 239.245 241.093,246.545 237.499,249.766 235.439 C 251.003 234.648,252.103 234.000,252.211 234.000 C 252.564 234.000,259.743 228.698,262.400 226.476 C 270.369 219.809,279.186 209.526,283.728 201.600 C 285.407 198.671,290.000 189.370,290.000 188.899 C 290.000 188.660,290.253 187.955,290.563 187.332 C 292.064 184.313,294.551 176.093,295.565 170.800 C 297.439 161.011,297.382 162.645,297.391 119.200 L 297.400 78.200 273.100 78.097 L 248.800 77.994 248.800 113.828 C 248.800 149.597,248.581 156.980,247.380 161.800 C 245.919 167.659,245.945 167.584,243.557 172.600 C 233.193 194.373,208.276 205.291,184.800 198.348 C 181.568 197.392,173.838 193.495,172.480 192.137 C 172.185 191.842,171.810 191.600,171.647 191.600 C 171.484 191.600,170.996 191.285,170.562 190.900 C 170.128 190.515,168.834 189.425,167.687 188.477 C 164.234 185.624,158.000 178.482,158.000 177.380 C 158.000 177.251,157.550 176.557,157.000 175.836 C 156.450 175.114,156.000 174.364,156.000 174.169 C 156.000 173.973,155.518 172.820,154.929 171.606 C 153.191 168.026,152.418 165.749,151.667 162.000 C 151.425 160.790,151.105 159.260,150.957 158.600 C 150.808 157.940,150.577 139.580,150.443 117.800 L 150.200 78.200 126.089 78.097 C 105.216 78.008,101.947 78.072,101.752 78.580 " stroke="none" fill="#ebebeb" fill-rule="evenodd"></path><path id="path2" d="M99.206 80.016 C 98.440 80.997,97.615 81.980,97.374 82.200 C 97.134 82.420,95.961 83.766,94.768 85.190 C 93.576 86.615,92.420 87.982,92.200 88.229 C 89.194 91.598,86.889 94.284,86.423 94.961 C 86.106 95.423,85.743 95.890,85.617 96.000 C 85.490 96.110,84.875 96.830,84.249 97.600 C 83.624 98.370,82.452 99.720,81.647 100.600 C 80.841 101.480,79.376 103.183,78.391 104.384 C 76.806 106.316,75.008 108.420,73.798 109.756 C 73.577 110.000,72.317 111.460,70.998 113.000 C 69.679 114.540,68.505 115.890,68.388 116.000 C 68.272 116.110,66.749 117.910,65.005 120.000 C 61.989 123.613,56.850 129.572,56.381 130.000 C 56.260 130.110,53.839 132.990,51.000 136.400 C 48.161 139.810,45.736 142.690,45.610 142.800 C 45.262 143.105,38.433 151.111,36.399 153.600 C 35.409 154.810,34.270 156.160,33.866 156.600 C 33.462 157.040,31.041 159.830,28.485 162.800 C 14.506 179.046,8.798 185.703,6.020 189.000 C 2.377 193.323,0.980 194.953,0.500 195.438 C 0.103 195.839,0.000 216.885,0.000 297.971 L 0.000 400.000 80.000 400.000 C 132.658 400.000,160.000 399.864,160.000 399.603 C 160.000 399.385,160.344 398.800,160.765 398.303 C 164.226 394.219,167.558 390.333,168.760 388.979 C 170.358 387.180,171.465 385.902,174.994 381.790 C 176.311 380.256,177.481 378.910,177.594 378.800 C 177.707 378.690,178.483 377.749,179.319 376.710 C 180.154 375.670,181.057 374.590,181.325 374.310 C 181.594 374.029,183.245 372.090,184.995 370.000 C 186.745 367.910,188.272 366.110,188.388 366.000 C 188.505 365.890,189.679 364.540,190.998 363.000 C 192.317 361.460,193.614 359.971,193.879 359.690 C 194.145 359.410,195.046 358.330,195.881 357.290 C 196.717 356.251,197.495 355.310,197.612 355.200 C 197.728 355.090,199.253 353.290,201.000 351.200 C 203.941 347.682,211.900 338.457,212.388 338.000 C 212.506 337.890,213.623 336.540,214.871 335.000 C 216.119 333.460,217.468 331.836,217.870 331.391 C 223.226 325.458,224.091 324.331,223.637 323.877 C 223.281 323.521,217.037 323.372,198.980 323.291 L 174.800 323.182 174.800 284.791 C 174.800 248.494,174.762 246.400,174.100 246.402 C 173.352 246.404,169.857 245.335,168.705 244.752 C 168.323 244.558,167.745 244.400,167.419 244.400 C 167.093 244.400,166.146 244.105,165.314 243.745 C 164.481 243.384,163.440 242.959,163.000 242.799 C 160.046 241.728,152.804 238.166,149.316 236.070 C 139.064 229.908,129.977 222.061,122.584 212.984 C 120.130 209.971,116.800 205.263,116.800 204.806 C 116.800 204.583,116.632 204.400,116.427 204.400 C 116.222 204.400,115.928 203.995,115.773 203.500 C 115.619 203.005,115.381 202.510,115.246 202.400 C 114.962 202.169,114.045 200.547,112.493 197.526 C 111.892 196.357,111.265 195.340,111.100 195.267 C 110.935 195.193,110.800 194.926,110.800 194.672 C 110.800 194.419,110.368 193.309,109.840 192.206 C 109.312 191.103,108.583 189.480,108.220 188.600 C 107.858 187.720,107.390 186.687,107.181 186.305 C 106.971 185.923,106.800 185.248,106.800 184.805 C 106.800 184.362,106.650 184.000,106.467 184.000 C 106.169 184.000,105.526 181.966,104.948 179.200 C 104.834 178.650,104.572 177.840,104.367 177.400 C 103.759 176.093,102.913 171.788,101.734 164.000 C 101.199 160.465,101.059 153.342,100.849 119.016 L 100.600 78.232 99.206 80.016 " stroke="none" fill="#3c546c" fill-rule="evenodd"></path></g></svg>